<svg xmlns="http://www.w3.org/2000/svg" xmlns:xlink="http://www.w3.org/1999/xlink" viewBox="0 0 228.87481 270">
  <defs>
    <style>
      .a {
        fill: none;
      }

      .b {
        isolation: isolate;
      }

      .c {
        fill: url(#a);
      }

      .d {
        fill: #fdce78;
      }

      .e {
        fill: #fbbe5d;
      }

      .f {
        fill: #010101;
      }

      .f, .l {
        opacity: 0.25;
      }

      .g {
        fill: #f8bc9e;
      }

      .h {
        fill: #62694e;
      }

      .i {
        fill: #5476a2;
        opacity: 0.35;
      }

      .ap, .i {
        mix-blend-mode: multiply;
      }

      .j {
        fill: #f9c7b1;
      }

      .k {
        fill: #f8ef99;
      }

      .l {
        fill: #1e1e1c;
      }

      .m {
        fill: #7d4f51;
      }

      .n {
        fill: #f3a282;
      }

      .o {
        fill: #b7c8e1;
      }

      .p {
        clip-path: url(#b);
      }

      .q {
        fill: #343a45;
      }

      .r {
        fill: #323844;
      }

      .s {
        fill: #303742;
      }

      .t {
        fill: #2e3542;
      }

      .u {
        fill: #2d3542;
      }

      .v {
        fill: #2b3341;
      }

      .w {
        fill: #293241;
      }

      .x {
        fill: #283140;
      }

      .y {
        fill: #262f3f;
      }

      .z {
        fill: #242d3f;
      }

      .aa {
        fill: #222c3d;
      }

      .ab {
        fill: #202a3c;
      }

      .ac {
        fill: #1f293c;
      }

      .ad {
        fill: #1d283b;
      }

      .ae {
        fill: #1d273b;
      }

      .af {
        fill: #1c273b;
      }

      .ag {
        fill: #1a263a;
      }

      .ah {
        fill: #1a253a;
      }

      .ai {
        fill: #18243a;
      }

      .aj {
        fill: #182439;
      }

      .ak {
        fill: #172339;
      }

      .al {
        fill: #162339;
      }

      .am {
        fill: #152238;
      }

      .an {
        fill: #142238;
      }

      .ao {
        fill: #142137;
      }

      .aq {
        clip-path: url(#c);
      }

      .ar {
        fill: #eef4fb;
      }

      .as {
        fill: #edf3fb;
      }

      .at {
        fill: #ecf3fa;
      }

      .au {
        fill: #e9f2fa;
      }

      .av {
        fill: #e8f1fa;
      }

      .aw {
        fill: #e8f0f9;
      }

      .ax {
        fill: #e7f0fa;
      }

      .ay {
        fill: #e6effa;
      }

      .az {
        fill: #e5eef9;
      }

      .ba {
        fill: #e4eef8;
      }

      .bb {
        fill: #e3eef8;
      }

      .bc {
        fill: #e2edf9;
      }

      .bd {
        fill: #e0ecf7;
      }

      .be {
        fill: #dfecf8;
      }

      .bf {
        fill: #deeaf7;
      }

      .bg {
        fill: #deeaf8;
      }

      .bh {
        fill: #dde9f7;
      }

      .bi {
        fill: #dce8f7;
      }

      .bj {
        fill: #dbe9f7;
      }

      .bk {
        fill: #d9e7f7;
      }

      .bl {
        fill: #d8e6f5;
      }

      .bm {
        fill: #d7e6f5;
      }

      .bn {
        fill: #d6e5f5;
      }

      .bo {
        fill: #d5e5f5;
      }

      .bp {
        fill: #d4e4f4;
      }

      .bq {
        fill: #d3e3f4;
      }

      .br {
        fill: #d1e3f4;
      }

      .bs {
        fill: #d1e2f4;
      }

      .bt {
        fill: #d0e2f3;
      }

      .bu {
        fill: #d0e1f3;
      }

      .bv {
        clip-path: url(#d);
      }

      .bw {
        clip-path: url(#e);
      }

      .bx {
        opacity: 0.75;
      }

      .by {
        fill: #eaeaea;
      }

      .bz {
        fill: #ddd;
      }

      .ca {
        fill: #9c9b9b;
      }

      .cb {
        fill: #bd4c4c;
      }

      .cc {
        fill: #e9e8e8;
      }
    </style>
    <linearGradient id="a" data-name="Degradado sin nombre 7" x1="136.61899" y1="12.4181" x2="136.61899" y2="269.81973" gradientUnits="userSpaceOnUse">
      <stop offset="0" stop-color="#fff"/>
      <stop offset="1" stop-color="#fbd877"/>
    </linearGradient>
    <clipPath id="b" transform="translate(-22.18158)">
      <path class="a" d="M82.25866,209.96755a4.14313,4.14313,0,1,1-4.14316-4.14322A4.14311,4.14311,0,0,1,82.25866,209.96755Z"/>
    </clipPath>
    <clipPath id="c" transform="translate(-22.18158)">
      <path class="a" d="M80.05611,209.96755A1.94058,1.94058,0,1,1,78.1155,208.027,1.94053,1.94053,0,0,1,80.05611,209.96755Z"/>
    </clipPath>
    <clipPath id="d" transform="translate(-22.18158)">
      <path class="a" d="M124.07623,209.96755a4.1432,4.1432,0,1,1-4.14316-4.14322A4.14311,4.14311,0,0,1,124.07623,209.96755Z"/>
    </clipPath>
    <clipPath id="e" transform="translate(-22.18158)">
      <path class="a" d="M121.87354,209.96755a1.94051,1.94051,0,1,1-1.94047-1.94054A1.94041,1.94041,0,0,1,121.87354,209.96755Z"/>
    </clipPath>
  </defs>
  <g class="b">
    <g>
      <path class="c" d="M235.06193,109.62339c.35129,4.54236.841,9.07,1.57053,13.57287,3.66769,22.639,13.33141,44.00784,14.33932,67.11835.57252,13.12738-1.70647,26.66252-8.49127,37.91536-16.82129,27.89854-53.77658,35.393-83.50505,39.21789-7.59222.97683-15.22014,1.6704-22.85852,2.16283-34.32086,2.2125-71.64892-4.56088-95.16957-31.82176-11.44132-13.26072-18.46535-30.44113-18.75592-47.953-.29472-17.76188,6.08231-34.85426,9.80264-52.22464,3.78131-17.6551,4.816-35.71687,6.7414-53.62776,1.84659-17.17752,3.5429-35.601,13.57339-50.244C62.66825,18.61632,80.36071,9.96363,98.228,5.86648A247.85658,247.85658,0,0,1,156.287.03755c12.65163.2253,25.547,1.24459,37.53677,5.58968,27.42864,9.94016,36.90509,37.84593,39.22813,64.63184C234.18669,83.344,234.05047,96.54479,235.06193,109.62339Z" transform="translate(-22.18158)"/>
      <g>
        <path class="d" d="M158.90373,60.85407a18.74656,18.74656,0,0,0-1.85048,8.114l2.90614-7.41648Z" transform="translate(-22.18158)"/>
        <path class="e" d="M157.05325,68.968l1.08376.838,3.63644-8.43012S158.89109,60.64188,157.05325,68.968Z" transform="translate(-22.18158)"/>
        <path class="f" d="M195.14025,214.111c0,1.40042-12.89061,2.53695-28.79335,2.53695-15.90076,0-28.79168-1.13653-28.79168-2.53695,0-1.40125,12.89092-2.53757,28.79168-2.53757C182.24964,211.57345,195.14025,212.70977,195.14025,214.111Z" transform="translate(-22.18158)"/>
        <path class="g" d="M174.81555,195.42944s3.4317,9.74108,3.15683,10.97856c-.16795.75572-.93092,3.30156-1.10425,3.66315-.06921.145-2.52793,2.09826-.89425,2.05724,1.61245-.04062,5.43713-5.12443,6.00469-5.50882a2.419,2.419,0,0,0,1.12849-2.50326,10.47816,10.47816,0,0,0-2.08406-3.69,15.17807,15.17807,0,0,1-1.33064-4.02215Z" transform="translate(-22.18158)"/>
        <path class="h" d="M173.79709,212.56592a9.82475,9.82475,0,0,1,2.64635-2.10986v.00041c.30315-.38511.54839-.63273.42469-.38532-.21116.41371.88014.62486,1.41693.18494,1.87457-1.5049,2.41137-3.749,3.33544-4.81392,1.32017-1.5137.396-3.51136.25519-3.8458a8.72306,8.72306,0,0,1,2.697,1.209,5.05539,5.05539,0,0,1,1.43009,1.595,21.56369,21.56369,0,0,0,1.28256,2.93013l-1.7776,1.41517-1.72226-1.561-.47536.50166a4.0852,4.0852,0,0,0-.91516,1.87447,10.07833,10.07833,0,0,1-.44893,1.39052,4.294,4.294,0,0,1-1.31126,1.82173s-.36833.30243-.75571.61989a3.169,3.169,0,0,1-2.00792.71779h-3.05342l-.002-.00435-.468-.00042a.80394.80394,0,0,1-.81881-.887A1.68418,1.68418,0,0,1,173.79709,212.56592Z" transform="translate(-22.18158)"/>
        <path class="g" d="M161.12323,205.27271c.57725,1.17252,1.9032,2.48938,1.98434,4.0227a2.35857,2.35857,0,0,1-1.61452,2.23681c-1.0824.451-1.76778-.13526-2.15566-.11725-2.22778.10822-2.70584,1.69566-6.55717,2.0384a6.12192,6.12192,0,0,1-3.95945-1.24469.81577.81577,0,0,1-.09931-1.13646c.24354-.32469,3.10275-1.05526,4.41053-1.74978a7.8,7.8,0,0,0,2.90435-3.31012c.24355-.76664-.17142-4.50974-.35188-6.07912-.532-4.645-1.54229-10.07472-2.58847-15.26994l8.4421.53211c-.17132,4.627-1.0823,9.60576-1.001,14.69275C160.60014,201.196,160.6542,204.31665,161.12323,205.27271Z" transform="translate(-22.18158)"/>
        <path class="h" d="M148.51371,212.4562a2.85668,2.85668,0,0,0,.79539.88,4.06132,4.06132,0,0,0,2.47405.77447h1.8811a4.33153,4.33153,0,0,0,2.17326-.5829,10.372,10.372,0,0,0,1.22144-.79,4.05063,4.05063,0,0,1,1.90089-.87124,5.53228,5.53228,0,0,1,1.21448-.02642l.132,2.27056h2.59619a12.83356,12.83356,0,0,1,.66-3.24737,4.39187,4.39187,0,0,0-.18483-1.989,9.22739,9.22739,0,0,0-1.67212-2.63132c-.10558.352-.65107,2.48171-2.64013,2.81606-1.38171.23767-3.221,1.63689-5.62351,1.61047-.6951,0-1.408-.85362-.98562-1.03835s-.76565.02631-1.52251.29911a21.9392,21.9392,0,0,0-2.44648,1.20579C148.22319,211.28564,148.25852,211.981,148.51371,212.4562Z" transform="translate(-22.18158)"/>
        <path class="h" d="M180.45334,196.0209c-.94448-4.16937-1.64569-14.48811-3.36972-19.0571s-5.838-9.92328-5.92668-10.671c-.07438-.62568.55721-5.24026.76556-6.73211a.16812.16812,0,0,0,.0344-.10288c-.02134-.51555,2.51352-19.495,3.35129-22.37354a24.074,24.074,0,0,0,1.52521-9.71c-.2899-5.19883-4.42529-11.39642-5.55317-12.52409l-19.12978-.31155s-3.29752,7.798-3.61974,12.62086c-.666,10.1609.35444,31.56777.35444,31.56777l.04071.01855a79.82074,79.82074,0,0,0,.59689,8.33264c.576,4.21849,6.443,38.67557,6.443,38.67557a10.57036,10.57036,0,0,0,5.21591-.5773,3.4946,3.4946,0,0,1-.04227-.74111c-.218-4.15311,1.21943-16.59034-.44493-24.67929s-1.88645-10.61-1.88645-10.61l1.81883-8.83368c.02477-.14982.82358,5.73447,1.41984,7.94546.87145,3.23183,9.23,21.3817,12.54791,29.1991,1.13513,2.67452,2.15743,5.66982,2.15743,5.66982s3.98319-.45588,5.11717-2.21358A26.40234,26.40234,0,0,1,180.45334,196.0209Z" transform="translate(-22.18158)"/>
        <path class="h" d="M176.57508,125.4756s2.438,6.24965,0,15.14714-5.41814,25.67-5.41814,25.67l-1.75752-32.52611Z" transform="translate(-22.18158)"/>
        <path class="i" d="M160.62689,160.31266l-1.62714-25.55417s-2.85028,8.02122.99888,28.60549Z" transform="translate(-22.18158)"/>
        <path class="j" d="M163.6921,89.83305s3.027,15.727,2.11233,19.62061c-.52413,2.23127-17.61949,11.58428-17.61949,11.58428l-.14288-4.49874,9.427-8.5568-.93854-12.68276Z" transform="translate(-22.18158)"/>
        <path class="j" d="M141.60547,120.24165a6.61209,6.61209,0,0,1-.26415.75869c-.2577.52692-.77051.88754-1.063,1.396a8.22464,8.22464,0,0,0-.468,1.29234c-.18039.48862-.73261,1.23656-.34572,1.4179-.17355.29283-.40431.61219-.56615.91215-.12224.22663-.24627.69526.04309.73934.43015.06557,1.05171-.35271,1.394-.5325.45483-.23893,1.25975-.97814,1.68368-1.265a4.7719,4.7719,0,0,1,1.89044-.76195s-.30135.29462-.20495.51582c.14975.3438,1.05446.07731,1.9219.20515.44846.06611,1.88133-.91437,2.34015-1.18182s1.4639-2.45146,1.70037-2.89478a6.912,6.912,0,0,1,2.59781-2.11647s-3.04344-2.81194-3.05882-2.8261c-.07463-.0659-.61746.33457-.68808.37908a2.50671,2.50671,0,0,1-1.00124.41482c-1.42146.752-3.21449.79494-4.53033,1.76656a3.84073,3.84073,0,0,0-1.36843,1.74483Z" transform="translate(-22.18158)"/>
        <path class="k" d="M162.44883,82.76233s-5.82752,2.29652-7.3008,3.77883-4.87244,6.55035-4.23691,10.1955,3.72235,6.35705,1.76044,13.69109-3.109,11.32943-3.109,11.32943,14.39874,4.5227,26.29425.76606c0,0-2.32773-1.62135-.41342-18.37637,1.06762-9.34431,4.471-13.67957,1.43718-17.31808C171.96628,80.935,168.58459,81.669,162.44883,82.76233Z" transform="translate(-22.18158)"/>
        <path class="l" d="M169.7858,97.74407s-.37911,11.80769,1.62714,17.096l-.09846-10.5071Z" transform="translate(-22.18158)"/>
        <path class="j" d="M156.43314,120.51847a.00884.00884,0,0,1,.01239.0031c1.58633.29943,19.2534,2.99694,21.49946.90657,2.92919-2.72616,1.12062-19.6091,1.12062-19.6091l-8.20578.50752.55311,12.51347c-.23807.03734-13.81114,2.34654-14.02893,2.38805Z" transform="translate(-22.18158)"/>
        <path class="k" d="M177.2082,87.35238a4.80432,4.80432,0,0,1,.97158,1.75262,29.96239,29.96239,0,0,1,1.26892,12.49424c-.06031.60029-.05825,1.197-.14587,1.79393-.006.04086-8.40421.85222-8.40421.85222s-2.80045-11.096-.26962-16.5716a2.83419,2.83419,0,0,1,1.44478-1.1739,4.71335,4.71335,0,0,1,2.80893-.16218,4.43445,4.43445,0,0,1,2.1406.83051Q177.1197,87.2566,177.2082,87.35238Z" transform="translate(-22.18158)"/>
        <path class="m" d="M158.89255,66.867" transform="translate(-22.18158)"/>
        <path class="j" d="M160.331,61.22356s-2.01485,1.23635-1.98584,7.9181c.00083.23115-.8184,2.20488-.89217,2.43779-.28336.89527.28088.9535,1.04613,1.33239.30989,5.03978,1.06654,4.948,1.72951,5.39184.75707.50675,6.55132-.68785,10.27146-2.53165,3.72023-1.84359,4.985-7.34857,3.41252-10.725S164.68162,58.31322,160.331,61.22356Z" transform="translate(-22.18158)"/>
        <path class="j" d="M162.1163,72.99214c.97588,1.058,1.16153,3.19753,1.07948,5.24161-.02206.3477-.04413.69531-.06631,1.03286a32.15127,32.15127,0,0,1-.55824,3.84239l7.16281-.17748a43.77546,43.77546,0,0,1,.17645-6.89591S159.80813,70.4867,162.1163,72.99214Z" transform="translate(-22.18158)"/>
        <path class="n" d="M163.12947,79.26661a21.22111,21.22111,0,0,0,4.74927-2.40483c-2.00554.6521-4.683,1.372-4.683,1.372C163.17372,78.58145,163.15165,78.92906,163.12947,79.26661Z" transform="translate(-22.18158)"/>
        <path class="j" d="M162.57119,83.109a4.46254,4.46254,0,0,0-.85683.91478c-.43183.49557-.85664.99822-1.255,1.52126a10.84477,10.84477,0,0,0-1.85377,3.41149,2.88866,2.88866,0,0,0,.24042,2.62439,2.784,2.784,0,0,0,1.94345.86169,8.999,8.999,0,0,0,3.21912-.34869,7.20775,7.20775,0,0,0,4.10181-3.18556c1.10985-1.6017,2.16685-3.53069,1.91874-5.5494-.0184-.14965-.1928-1.28615-.35706-1.2946C169.67189,82.06435,164.74936,81.81125,162.57119,83.109Z" transform="translate(-22.18158)"/>
        <path class="f" d="M130.9436,214.111c0,1.40042-13.90988,2.53695-31.07006,2.53695-17.158,0-31.06826-1.13653-31.06826-2.53695,0-1.40125,13.91022-2.53757,31.06826-2.53757C117.03372,211.57345,130.9436,212.70977,130.9436,214.111Z" transform="translate(-22.18158)"/>
        <g>
          <g>
            <path class="o" d="M123.47341,189.35256a.98358.98358,0,0,1-.17489-.01518l-53.9909-9.37a1.01368,1.01368,0,0,1-.78006-.654l-11.509-31.84479a1.54809,1.54809,0,0,1,1.36479-2.07094l74.86856-4.39266,3.09321-13.52907a3.85717,3.85717,0,0,1,3.13545-3.0061l13.73564-3.03579a1.01375,1.01375,0,0,1,.43689,1.97987l-13.78184,3.045a1.86553,1.86553,0,0,0-1.54627,1.45256L124.46,188.56458A1.01347,1.01347,0,0,1,123.47341,189.35256ZM70.2342,178.07064,122.698,187.176l10.08345-44.112-73.63775,4.3194Z" transform="translate(-22.18158)"/>
            <path class="o" d="M75.7006,180.38576a.33814.33814,0,0,1-.32469-.24418L65.5373,146.02786a.338.338,0,1,1,.6494-.18743l9.8386,34.11372a.33783.33783,0,0,1-.231.41841A.328.328,0,0,1,75.7006,180.38576Z" transform="translate(-22.18158)"/>
            <path class="o" d="M81.86326,181.45554a.33757.33757,0,0,1-.33-.2653L73.697,145.48735a.33787.33787,0,0,1,.66-.14519l7.8363,35.70289a.338.338,0,0,1-.25738.40258A.34429.34429,0,0,1,81.86326,181.45554Z" transform="translate(-22.18158)"/>
            <path class="o" d="M87.9685,182.51543a.33787.33787,0,0,1-.33328-.28642L81.889,144.94553a.33788.33788,0,0,1,.66787-.10295l5.74623,37.28348a.33827.33827,0,0,1-.28246.38541A.34672.34672,0,0,1,87.9685,182.51543Z" transform="translate(-22.18158)"/>
            <path class="o" d="M94.01963,183.56542a.33806.33806,0,0,1-.33592-.30688L90.114,144.40173a.33819.33819,0,0,1,.30556-.3676.34564.34564,0,0,1,.3676.30556l3.56969,38.85682a.33818.33818,0,0,1-.30556.36759Z" transform="translate(-22.18158)"/>
            <path class="o" d="M100.01729,184.60617a.338.338,0,0,1-.33789-.32668L98.37269,143.8566a.33834.33834,0,0,1,.32668-.34911h.01121a.338.338,0,0,1,.3379.32668l1.30671,40.42288a.33834.33834,0,0,1-.32668.34912Z" transform="translate(-22.18158)"/>
            <path class="o" d="M105.95953,185.63768H105.951a.33825.33825,0,0,1-.32932-.34648l1.04339-41.9817a.33811.33811,0,0,1,.3379-.32932h.00858a.33825.33825,0,0,1,.32931.34648l-1.04339,41.9817A.33811.33811,0,0,1,105.95953,185.63768Z" transform="translate(-22.18158)"/>
            <path class="o" d="M111.84962,186.66l-.02771-.00132a.337.337,0,0,1-.30952-.36364l3.47862-43.53325a.33766.33766,0,1,1,.67315.05412l-3.47862,43.53325A.33722.33722,0,0,1,111.84962,186.66Z" transform="translate(-22.18158)"/>
            <path class="o" d="M117.68692,187.673a.32434.32434,0,0,1-.066-.0066.33716.33716,0,0,1-.266-.39663l8.85791-45.07755a.33312.33312,0,0,1,.39663-.266.33715.33715,0,0,1,.266.39663l-8.85791,45.07755A.3377.3377,0,0,1,117.68692,187.673Z" transform="translate(-22.18158)"/>
          </g>
          <path class="o" d="M61.93461,158.42642a.338.338,0,0,1-.01056-.67579l68.13042-2.09272a.32231.32231,0,0,1,.34846.32734.33874.33874,0,0,1-.32734.34846l-68.13042,2.09271Z" transform="translate(-22.18158)"/>
          <path class="o" d="M126.45442,174.56826l-.02574-.00066-60.59176-4.458a.33817.33817,0,1,1,.05016-.67447l60.59176,4.458a.338.338,0,0,1-.02442.67514Z" transform="translate(-22.18158)"/>
          <path class="o" d="M127.89906,206.72587H77.83952a.6758.6758,0,1,1,0-1.35159h50.05954a.80733.80733,0,0,0,.72661-1.15954l-5.78714-15.64158a.67549.67549,0,0,1,1.26711-.46857l5.76207,15.58087a2.10771,2.10771,0,0,1-.13925,2.02738A2.14671,2.14671,0,0,1,127.89906,206.72587Z" transform="translate(-22.18158)"/>
          <g>
            <g class="p">
              <path class="q" d="M73.97241,205.82433v0Z" transform="translate(-22.18158)"/>
              <rect class="q" x="51.79083" y="205.82433" width="0.25895" height="8.28638"/>
              <rect class="r" x="52.04977" y="205.82433" width="0.25895" height="8.28638"/>
              <rect class="s" x="52.30872" y="205.82433" width="0.25895" height="8.28638"/>
              <rect class="t" x="52.56766" y="205.82433" width="0.25895" height="8.28638"/>
              <rect class="u" x="52.82661" y="205.82433" width="0.25895" height="8.28638"/>
              <rect class="v" x="53.08555" y="205.82433" width="0.25895" height="8.28638"/>
              <rect class="w" x="53.3445" y="205.82433" width="0.25895" height="8.28638"/>
              <rect class="x" x="53.60344" y="205.82433" width="0.25895" height="8.28638"/>
              <rect class="y" x="53.86239" y="205.82433" width="0.25895" height="8.28638"/>
              <rect class="z" x="54.12133" y="205.82433" width="0.25895" height="8.28638"/>
              <rect class="aa" x="54.38028" y="205.82433" width="0.25895" height="8.28638"/>
              <rect class="aa" x="54.63922" y="205.82433" width="0.25895" height="8.28638"/>
              <rect class="ab" x="54.89817" y="205.82433" width="0.25895" height="8.28638"/>
              <rect class="ac" x="55.15711" y="205.82433" width="0.25895" height="8.28638"/>
              <rect class="ad" x="55.41606" y="205.82433" width="0.25895" height="8.28638"/>
              <rect class="ae" x="55.67501" y="205.82433" width="0.25895" height="8.28638"/>
              <rect class="af" x="55.93395" y="205.82433" width="0.25895" height="8.28638"/>
              <rect class="ag" x="56.1929" y="205.82433" width="0.25895" height="8.28638"/>
              <rect class="ah" x="56.45184" y="205.82433" width="0.25895" height="8.28638"/>
              <rect class="ai" x="56.71079" y="205.82433" width="0.25895" height="8.28638"/>
              <rect class="aj" x="56.96973" y="205.82433" width="0.25895" height="8.28638"/>
              <rect class="ak" x="57.22868" y="205.82433" width="0.25895" height="8.28638"/>
              <rect class="al" x="57.48762" y="205.82433" width="0.25895" height="8.28638"/>
              <rect class="am" x="57.74657" y="205.82433" width="0.25895" height="8.28638"/>
              <rect class="an" x="58.00551" y="205.82433" width="0.25895" height="8.28638"/>
              <rect class="am" x="58.26446" y="205.82433" width="0.25895" height="8.28638"/>
              <rect class="am" x="58.5234" y="205.82433" width="0.25895" height="8.28638"/>
              <rect class="ao" x="58.78235" y="205.82433" width="0.25895" height="8.28638"/>
              <rect class="ao" x="59.04129" y="205.82433" width="0.25895" height="8.28638"/>
              <rect class="ao" x="59.30024" y="205.82433" width="0.25895" height="8.28638"/>
              <rect class="ao" x="59.55918" y="205.82433" width="0.25895" height="8.28638"/>
              <rect class="ao" x="59.81813" y="205.82433" width="0.25895" height="8.28638"/>
              <path class="ao" d="M82.25866,214.11071v0Z" transform="translate(-22.18158)"/>
            </g>
            <g class="ap">
              <g class="aq">
                <path class="ar" d="M76.175,208.027v0Z" transform="translate(-22.18158)"/>
                <rect class="ar" x="53.99338" y="208.02701" width="0.1252" height="3.88102"/>
                <rect class="as" x="54.11858" y="208.02701" width="0.1252" height="3.88102"/>
                <rect class="at" x="54.24377" y="208.02701" width="0.1252" height="3.88102"/>
                <rect class="au" x="54.36897" y="208.02701" width="0.1252" height="3.88102"/>
                <rect class="av" x="54.49417" y="208.02701" width="0.1252" height="3.88102"/>
                <rect class="aw" x="54.61937" y="208.02701" width="0.1252" height="3.88102"/>
                <rect class="ax" x="54.74457" y="208.02701" width="0.1252" height="3.88102"/>
                <rect class="ay" x="54.86977" y="208.02701" width="0.1252" height="3.88102"/>
                <rect class="az" x="54.99496" y="208.02701" width="0.1252" height="3.88102"/>
                <rect class="ba" x="55.12016" y="208.02701" width="0.1252" height="3.88102"/>
                <rect class="bb" x="55.24536" y="208.02701" width="0.1252" height="3.88102"/>
                <rect class="bc" x="55.37056" y="208.02701" width="0.1252" height="3.88102"/>
                <rect class="bd" x="55.49576" y="208.02701" width="0.1252" height="3.88102"/>
                <rect class="be" x="55.62096" y="208.02701" width="0.1252" height="3.88102"/>
                <rect class="bf" x="55.74615" y="208.02701" width="0.1252" height="3.88102"/>
                <rect class="bg" x="55.87135" y="208.02701" width="0.1252" height="3.88102"/>
                <rect class="bh" x="55.99655" y="208.02701" width="0.1252" height="3.88102"/>
                <rect class="bi" x="56.12175" y="208.02701" width="0.1252" height="3.88102"/>
                <rect class="bj" x="56.24695" y="208.02701" width="0.1252" height="3.88102"/>
                <rect class="bk" x="56.37215" y="208.02701" width="0.1252" height="3.88102"/>
                <rect class="bl" x="56.49735" y="208.02701" width="0.1252" height="3.88102"/>
                <rect class="bm" x="56.62254" y="208.02701" width="0.1252" height="3.88102"/>
                <rect class="bn" x="56.74774" y="208.02701" width="0.1252" height="3.88102"/>
                <rect class="bo" x="56.87294" y="208.02701" width="0.1252" height="3.88102"/>
                <rect class="bp" x="56.99814" y="208.02701" width="0.1252" height="3.88102"/>
                <rect class="bq" x="57.12334" y="208.02701" width="0.1252" height="3.88102"/>
                <rect class="br" x="57.24854" y="208.02701" width="0.1252" height="3.88102"/>
                <rect class="bs" x="57.37373" y="208.02701" width="0.1252" height="3.88102"/>
                <rect class="bt" x="57.49893" y="208.02701" width="0.1252" height="3.88102"/>
                <rect class="bu" x="57.62413" y="208.02701" width="0.1252" height="3.88102"/>
                <rect class="bu" x="57.74933" y="208.02701" width="0.1252" height="3.88102"/>
                <path class="bu" d="M80.05611,211.908v0Z" transform="translate(-22.18158)"/>
              </g>
            </g>
          </g>
          <path class="o" d="M78.1155,210.96557h0a2.50913,2.50913,0,0,1-2.42245-1.8556l-1.00686-3.73153h6.85869L80.53815,209.11A2.50948,2.50948,0,0,1,78.1155,210.96557Z" transform="translate(-22.18158)"/>
          <g>
            <g class="bv">
              <path class="q" d="M115.78984,205.82433v0Z" transform="translate(-22.18158)"/>
              <rect class="q" x="93.60826" y="205.82433" width="0.25895" height="8.28638"/>
              <rect class="r" x="93.86721" y="205.82433" width="0.25895" height="8.28638"/>
              <rect class="s" x="94.12616" y="205.82433" width="0.25895" height="8.28638"/>
              <rect class="t" x="94.38511" y="205.82433" width="0.25895" height="8.28638"/>
              <rect class="u" x="94.64406" y="205.82433" width="0.25895" height="8.28638"/>
              <rect class="v" x="94.90301" y="205.82433" width="0.25895" height="8.28638"/>
              <rect class="w" x="95.16196" y="205.82433" width="0.25895" height="8.28638"/>
              <rect class="x" x="95.42091" y="205.82433" width="0.25895" height="8.28638"/>
              <rect class="y" x="95.67986" y="205.82433" width="0.25895" height="8.28638"/>
              <rect class="z" x="95.93881" y="205.82433" width="0.25895" height="8.28638"/>
              <rect class="aa" x="96.19776" y="205.82433" width="0.25895" height="8.28638"/>
              <rect class="aa" x="96.4567" y="205.82433" width="0.25895" height="8.28638"/>
              <rect class="ab" x="96.71565" y="205.82433" width="0.25895" height="8.28638"/>
              <rect class="ac" x="96.9746" y="205.82433" width="0.25895" height="8.28638"/>
              <rect class="ad" x="97.23355" y="205.82433" width="0.25895" height="8.28638"/>
              <rect class="ae" x="97.4925" y="205.82433" width="0.25895" height="8.28638"/>
              <rect class="af" x="97.75145" y="205.82433" width="0.25895" height="8.28638"/>
              <rect class="ag" x="98.0104" y="205.82433" width="0.25895" height="8.28638"/>
              <rect class="ah" x="98.26935" y="205.82433" width="0.25895" height="8.28638"/>
              <rect class="ai" x="98.5283" y="205.82433" width="0.25895" height="8.28638"/>
              <rect class="aj" x="98.78725" y="205.82433" width="0.25895" height="8.28638"/>
              <rect class="ak" x="99.0462" y="205.82433" width="0.25895" height="8.28638"/>
              <rect class="al" x="99.30515" y="205.82433" width="0.25895" height="8.28638"/>
              <rect class="am" x="99.5641" y="205.82433" width="0.25895" height="8.28638"/>
              <rect class="an" x="99.82305" y="205.82433" width="0.25895" height="8.28638"/>
              <rect class="am" x="100.082" y="205.82433" width="0.25895" height="8.28638"/>
              <rect class="am" x="100.34095" y="205.82433" width="0.25895" height="8.28638"/>
              <rect class="ao" x="100.5999" y="205.82433" width="0.25895" height="8.28638"/>
              <rect class="ao" x="100.85884" y="205.82433" width="0.25895" height="8.28638"/>
              <rect class="ao" x="101.11779" y="205.82433" width="0.25895" height="8.28638"/>
              <rect class="ao" x="101.37674" y="205.82433" width="0.25895" height="8.28638"/>
              <rect class="ao" x="101.63569" y="205.82433" width="0.25895" height="8.28638"/>
              <path class="ao" d="M124.07623,214.11071v0Z" transform="translate(-22.18158)"/>
            </g>
            <g class="ap">
              <g class="bw">
                <path class="ar" d="M117.99253,208.027v0Z" transform="translate(-22.18158)"/>
                <rect class="ar" x="95.81095" y="208.02701" width="0.12519" height="3.88102"/>
                <rect class="as" x="95.93614" y="208.02701" width="0.12519" height="3.88102"/>
                <rect class="at" x="96.06133" y="208.02701" width="0.12519" height="3.88102"/>
                <rect class="au" x="96.18653" y="208.02701" width="0.12519" height="3.88102"/>
                <rect class="av" x="96.31172" y="208.02701" width="0.12519" height="3.88102"/>
                <rect class="aw" x="96.43692" y="208.02701" width="0.12519" height="3.88102"/>
                <rect class="ax" x="96.56211" y="208.02701" width="0.12519" height="3.88102"/>
                <rect class="ay" x="96.6873" y="208.02701" width="0.12519" height="3.88102"/>
                <rect class="az" x="96.8125" y="208.02701" width="0.12519" height="3.88102"/>
                <rect class="ba" x="96.93769" y="208.02701" width="0.12519" height="3.88102"/>
                <rect class="bb" x="97.06289" y="208.02701" width="0.12519" height="3.88102"/>
                <rect class="bc" x="97.18808" y="208.02701" width="0.12519" height="3.88102"/>
                <rect class="bd" x="97.31327" y="208.02701" width="0.12519" height="3.88102"/>
                <rect class="be" x="97.43847" y="208.02701" width="0.12519" height="3.88102"/>
                <rect class="bf" x="97.56366" y="208.02701" width="0.12519" height="3.88102"/>
                <rect class="bg" x="97.68886" y="208.02701" width="0.12519" height="3.88102"/>
                <rect class="bh" x="97.81405" y="208.02701" width="0.12519" height="3.88102"/>
                <rect class="bi" x="97.93924" y="208.02701" width="0.12519" height="3.88102"/>
                <rect class="bj" x="98.06444" y="208.02701" width="0.12519" height="3.88102"/>
                <rect class="bk" x="98.18963" y="208.02701" width="0.12519" height="3.88102"/>
                <rect class="bl" x="98.31483" y="208.02701" width="0.12519" height="3.88102"/>
                <rect class="bm" x="98.44002" y="208.02701" width="0.12519" height="3.88102"/>
                <rect class="bn" x="98.56521" y="208.02701" width="0.12519" height="3.88102"/>
                <rect class="bo" x="98.69041" y="208.02701" width="0.12519" height="3.88102"/>
                <rect class="bp" x="98.8156" y="208.02701" width="0.12519" height="3.88102"/>
                <rect class="bq" x="98.9408" y="208.02701" width="0.12519" height="3.88102"/>
                <rect class="br" x="99.06599" y="208.02701" width="0.12519" height="3.88102"/>
                <rect class="bs" x="99.19118" y="208.02701" width="0.12519" height="3.88102"/>
                <rect class="bt" x="99.31638" y="208.02701" width="0.12519" height="3.88102"/>
                <rect class="bu" x="99.44157" y="208.02701" width="0.12519" height="3.88102"/>
                <rect class="bu" x="99.56677" y="208.02701" width="0.12519" height="3.88102"/>
                <path class="bu" d="M121.87354,211.908v0Z" transform="translate(-22.18158)"/>
              </g>
            </g>
          </g>
          <path class="o" d="M119.93307,210.96557h0a2.50922,2.50922,0,0,1-2.42258-1.8556l-1.00673-3.73153h6.85863L122.35566,209.11A2.50923,2.50923,0,0,1,119.93307,210.96557Z" transform="translate(-22.18158)"/>
          <path class="o" d="M124.25677,192.70315a.71833.71833,0,0,1-.12869-.01188l-51.15045-9.84982a.68381.68381,0,0,1-.32008-.15773l-3.62447-3.2087a.676.676,0,1,1,.89622-1.01237l3.48588,3.08595,50.969,9.81485a.67594.67594,0,0,1-.12737,1.3397Z" transform="translate(-22.18158)"/>
          <path class="o" d="M145.36939,121.74747h10.28683a.7098.7098,0,0,1,.7098.7098V124.154a.70976.70976,0,0,1-.70976.70976H145.36945a.70967.70967,0,0,1-.70967-.70967v-1.697A.70961.70961,0,0,1,145.36939,121.74747Z" transform="translate(-37.17899 21.00827) rotate(-7.60651)"/>
        </g>
        <path class="j" d="M144.49969,123.30632c.25221-.23305.57773-.45311.84287-.67055-.308-.30554.465-.81962.80281-1.22189a8.11472,8.11472,0,0,1,.86662-1.05512c.44769-.38285,1.0543-.54648,1.47637-.96049a5.78032,5.78032,0,0,0,.49756-.62725c.01193-.00456.01929-.021.0312-.02556a3.80982,3.80982,0,0,1,1.87412-1.18783c1.56612-.47583,3.27017.088,4.855-.14239a1.55351,1.55351,0,0,0,.49814.03488.00884.00884,0,0,0,.01192-.00456,2.26135,2.26135,0,0,0,.57339-.08955c.08425-.01179.72574-.20922.77417-.11843l.01358.03574c.19711.35476,1.92327,3.655,1.92327,3.655s-.07233.00723-.20881.02524l-.01192.00456a6.311,6.311,0,0,0-2.93632,1.08858,13.99733,13.99733,0,0,1-2.5749,2.159c-.52493.09148-2.20535.53595-2.60238.31906-.77678-.40634-1.71167-.45855-1.74019-.8368-.02242-.23727.36526-.41968.36526-.41968-.02831-.00276-.04848-.00188-.06128-.01749a.03154.03154,0,0,1-.02017.00088l-.00814-.00364a5.09486,5.09486,0,0,0-1.208-.01618,3.9348,3.9348,0,0,0-.73752.12492c-.4993.12264-1.502.55386-2.00772.62425-.38922.05335-1.11582.24235-1.49647.03278C144.036,123.87956,144.30511,123.47624,144.49969,123.30632Z" transform="translate(-22.18158)"/>
        <path class="e" d="M160.57183,63.50988a6.16,6.16,0,0,0,3.56915,4.42343c1.36313.52829,1.10971,3.23847,1.10971,3.23847s1.07655-2.819,2.62805-1.30611-1.60322,4.263-1.60322,4.263l3.635,1.907s5.47345-1.3387,4.83128-8.90257-7.77818-9.54482-15.26859-5.75709Z" transform="translate(-22.18158)"/>
        <g class="bx">
          <ellipse class="by" cx="138.23807" cy="68.87931" rx="1.2449" ry="1.89442"/>
          <path class="bz" d="M160.42019,70.93261c-.7736,0-1.40361-.92089-1.40361-2.05343,0-1.1313.63-2.05219,1.40361-2.05219s1.40237.92089,1.40237,2.05219C161.82256,70.01172,161.19378,70.93261,160.42019,70.93261Zm0-3.78876c-.59908,0-1.08675.77855-1.08675,1.73533,0,.958.48767,1.73656,1.08675,1.73656s1.0855-.77854,1.0855-1.73656C161.50569,67.9224,161.01926,67.14385,160.42019,67.14385Z" transform="translate(-22.18158)"/>
          <ellipse class="by" cx="135.22391" cy="68.61528" rx="0.90323" ry="1.73204"/>
          <path class="bz" d="M157.405,70.50558c-.59535,0-1.06075-.83053-1.06075-1.89,0-1.06075.4654-1.89128,1.06075-1.89128s1.062.83053,1.062,1.89128C158.467,69.67505,158.00038,70.50558,157.405,70.50558Zm0-3.46446c-.35152,0-.74388.64611-.74388,1.57442,0,.92707.39236,1.57318.74388,1.57318.35276,0,.74513-.64611.74513-1.57318C158.15015,67.68723,157.75778,67.04112,157.405,67.04112Z" transform="translate(-22.18158)"/>
          <polygon class="bz" points="136.964 69.117 136.097 68.955 136.157 68.643 137.023 68.805 136.964 69.117"/>
          <rect class="bz" x="139.48254" y="68.80244" width="2.98793" height="0.31686"/>
        </g>
        <path class="d" d="M160.07711,63.13315s6.8616,10.8168,3.69743,16.463c0,0,3.80872-4.2579.83376-12.25561,0,0,2.65133,9.88436,4.04628,10.97534,0,0,2.58066-.46672,3.16189-.65271a11.4305,11.4305,0,0,1-1.59982-6.29854s.7396,3.67138,2.0648,4.90359a4.44331,4.44331,0,0,1,.76593-1.65064c.54837-.65339,2.00072-1.92577,2.396-3.25295s1.08108-19.14768-16.53961-10.51061Z" transform="translate(-22.18158)"/>
      </g>
      <g>
        <path class="ca" d="M163.86189,44.965a11.13634,11.13634,0,0,1,.50422-3.50465,8.99585,8.99585,0,0,1,1.90483-2.85414l2.44641-2.518a5.63765,5.63765,0,0,0,1.56869-3.80033,4.34153,4.34153,0,0,0-1.02712-3.06579,3.87805,3.87805,0,0,0-2.988-1.10805,4.49672,4.49672,0,0,0-3.06267,1.00845,3.40955,3.40955,0,0,0-1.15785,2.70785h-3.45485a6.29147,6.29147,0,0,1,2.15695-4.88347,8.06572,8.06572,0,0,1,5.51842-1.85815,7.61876,7.61876,0,0,1,5.49975,1.89238,6.861,6.861,0,0,1,1.9702,5.19162q0,3.26343-3.02533,6.43349L168.68,40.62a6.27482,6.27482,0,0,0-1.36326,4.345Zm-.1494,5.93238a2.0538,2.0538,0,0,1,.51356-1.4224,1.93727,1.93727,0,0,1,1.522-.57581,1.96747,1.96747,0,0,1,1.53134.57581,2.03221,2.03221,0,0,1,.52289,1.4224,1.96544,1.96544,0,0,1-.52289,1.40373,2.00377,2.00377,0,0,1-1.53134.55713,1.85024,1.85024,0,0,1-2.03556-1.96086Z" transform="translate(-22.18158)"/>
        <polygon class="ca" points="135.761 31.178 136.414 31.83 137.746 30.909 135.761 31.178"/>
        <polygon class="ca" points="141.028 44.312 141.68 44.965 143.096 43.978 141.028 44.312"/>
        <polygon class="cb" points="144.445 48.822 145.038 49.414 144.524 49.983 144.445 48.822"/>
        <polygon class="cb" points="141.392 51.649 141.973 52.219 142.553 51.543 141.392 51.649"/>
        <polygon class="cb" points="149.049 26.441 149.701 27.091 149.164 27.217 149.049 26.441"/>
        <path class="cc" d="M163.20936,44.31249a11.13663,11.13663,0,0,1,.50422-3.50465,8.99593,8.99593,0,0,1,1.90484-2.85415l2.44641-2.518a5.63767,5.63767,0,0,0,1.56869-3.80034,4.3416,4.3416,0,0,0-1.02712-3.06579,3.8781,3.8781,0,0,0-2.988-1.108A4.49681,4.49681,0,0,0,162.55574,28.47a3.4096,3.4096,0,0,0-1.15784,2.70786h-3.45485A6.29146,6.29146,0,0,1,160.1,26.29435a8.06575,8.06575,0,0,1,5.51842-1.85815,7.6188,7.6188,0,0,1,5.49975,1.89239,6.861,6.861,0,0,1,1.9702,5.19161q0,3.26343-3.02533,6.43349l-2.03556,2.01378a6.2748,6.2748,0,0,0-1.36327,4.345Zm-.1494,5.93238a2.05384,2.05384,0,0,1,.51356-1.4224,1.9373,1.9373,0,0,1,1.522-.57581,1.96744,1.96744,0,0,1,1.53134.57581,2.03218,2.03218,0,0,1,.5229,1.4224,1.9654,1.9654,0,0,1-.5229,1.40373,2.00374,2.00374,0,0,1-1.53134.55713A1.85024,1.85024,0,0,1,163.06,50.24487Z" transform="translate(-22.18158)"/>
      </g>
    </g>
  </g>
</svg>
